<svg id="그룹_9265" data-name="그룹 9265" xmlns="http://www.w3.org/2000/svg" width="26" height="26" viewBox="0 0 26 26">
  <path id="패스_384" data-name="패스 384" d="M790.814,463.966a1.93,1.93,0,1,0,1.93,1.929A1.93,1.93,0,0,0,790.814,463.966Z" transform="translate(-777.157 -451.256)" fill="#1ec73c"/>
  <path id="패스_385" data-name="패스 385" d="M766.167,425.257a13,13,0,1,0,13,13A13,13,0,0,0,766.167,425.257Zm1.351,19.46a3.048,3.048,0,0,1-2.669-1.368v1.037h-3.211v-13.24h3.178v5.039a4.22,4.22,0,0,1,2.7-1.251c4.48,0,4.479,4.842,4.479,4.842A4.683,4.683,0,0,1,767.517,444.717Z" transform="translate(-753.167 -425.257)" fill="#1ec73c"/>
</svg>
