<svg xmlns="http://www.w3.org/2000/svg" xmlns:xlink="http://www.w3.org/1999/xlink" width="665.002" height="351" viewBox="0 0 665.002 351">
  <defs>
    <filter id="합치기_17" x="0" y="0" width="665.002" height="351" filterUnits="userSpaceOnUse">
      <feOffset dy="5" input="SourceAlpha"/>
      <feGaussianBlur stdDeviation="2.5" result="blur"/>
      <feFlood flood-opacity="0.078"/>
      <feComposite operator="in" in2="blur"/>
      <feComposite in="SourceGraphic"/>
    </filter>
  </defs>
  <g transform="matrix(1, 0, 0, 1, 0, 0)" filter="url(#합치기_17)">
    <g id="합치기_17-2" data-name="합치기 17" transform="translate(13240.5 30.5)" fill="#fff">
      <path d="M -12588 307.5004272460938 L -13227.9990234375 307.5004272460938 C -13230.4814453125 307.5004272460938 -13232.5009765625 305.4810791015625 -13232.5009765625 302.9989318847656 L -13232.5009765625 2.998919010162354 L -13232.5009765625 -23.0015811920166 C -13232.5009765625 -25.48191452026367 -13229.9150390625 -27.49974822998047 -13226.7373046875 -27.49974822998047 L -13004.005859375 -27.49974822998047 L -12969.5009765625 -1.599331021308899 L -12969.3681640625 -1.499247670173645 L -12969.201171875 -1.499247670173645 L -12588 -1.499247670173645 C -12585.5185546875 -1.499247670173645 -12583.4990234375 0.5185856819152832 -12583.4990234375 2.998919010162354 L -12583.4990234375 302.9989318847656 C -12583.4990234375 305.4810791015625 -12585.5185546875 307.5004272460938 -12588 307.5004272460938 Z" stroke="none"/>
      <path d="M -12588 307.0004272460938 C -12585.7939453125 307.0004272460938 -12583.9990234375 305.205322265625 -12583.9990234375 302.9989318847656 L -12583.9990234375 2.998919010162354 C -12583.9990234375 0.7943357229232788 -12585.7939453125 -0.9992476105690002 -12588 -0.9992476105690002 L -12969.53515625 -0.9992476105690002 L -12969.8017578125 -1.199497580528259 L -13004.1728515625 -26.99974822998047 L -13226.7373046875 -26.99974822998047 C -13228.1845703125 -26.99974822998047 -13229.5361328125 -26.55733108520508 -13230.54296875 -25.75399780273438 C -13231.4833984375 -25.00349807739258 -13232.0009765625 -24.02608108520508 -13232.0009765625 -23.0015811920166 L -13232.0009765625 302.9989318847656 C -13232.0009765625 305.205322265625 -13230.2060546875 307.0004272460938 -13227.9990234375 307.0004272460938 L -12588 307.0004272460938 M -12588 308.0004272460938 L -13227.9990234375 308.0004272460938 C -13230.76171875 308.0004272460938 -13233.0009765625 305.7619934082031 -13233.0009765625 302.9989318847656 L -13233.0009765625 -23.0015811920166 C -13233.0009765625 -25.76133155822754 -13230.197265625 -27.99974822998047 -13226.7373046875 -27.99974822998047 L -13003.8388671875 -27.99974822998047 L -12969.201171875 -1.999247670173645 L -12588 -1.999247670173645 C -12585.2373046875 -1.999247670173645 -12582.9990234375 0.2390856891870499 -12582.9990234375 2.998919010162354 L -12582.9990234375 302.9989318847656 C -12582.9990234375 305.7619934082031 -12585.2373046875 308.0004272460938 -12588 308.0004272460938 Z" stroke="none" fill="#ccc"/>
    </g>
  </g>
</svg>
