<svg xmlns="http://www.w3.org/2000/svg" width="26" height="26" viewBox="0 0 26 26">
  <path id="패스_6346" data-name="패스 6346" d="M411.387-228.2a13.04,13.04,0,0,0-13,13.079A13.059,13.059,0,0,0,409.356-202.2v-9.14h-3.3v-3.781h3.3V-218c0-3.278,1.941-5.089,4.91-5.089a19.883,19.883,0,0,1,2.91.255v3.219h-1.639a1.885,1.885,0,0,0-2.119,2.043v2.453h3.606l-.576,3.781h-3.029v9.14a13.059,13.059,0,0,0,10.969-12.921A13.04,13.04,0,0,0,411.387-228.2Z" transform="translate(-398.387 228.202)" fill="#3d67a4"/>
</svg>
