<svg id="그룹_1023" data-name="그룹 1023" xmlns="http://www.w3.org/2000/svg" width="21.989" height="21.989" viewBox="0 0 21.989 21.989">
  <g id="그룹_1014" data-name="그룹 1014">
    <g id="그룹_1013" data-name="그룹 1013">
      <path id="패스_458" data-name="패스 458" d="M21.272,6.214H17.687V.717A.717.717,0,0,0,16.97,0H5.019A.717.717,0,0,0,4.3.717v5.5H.717A.717.717,0,0,0,0,6.931V16.97a.717.717,0,0,0,.717.717H4.3v3.585a.717.717,0,0,0,.717.717H16.97a.717.717,0,0,0,.717-.717V17.687h3.585a.717.717,0,0,0,.717-.717V6.931A.717.717,0,0,0,21.272,6.214ZM5.736,1.434H16.253v4.78H5.736ZM16.253,20.555H5.736v-7.17H16.253Zm4.3-4.3H17.687V12.668a.717.717,0,0,0-.717-.717H5.019a.717.717,0,0,0-.717.717v3.585H1.434v-8.6H20.555v8.6Z" fill="#444"/>
    </g>
  </g>
  <g id="그룹_1016" data-name="그룹 1016" transform="translate(7.218 14.867)">
    <g id="그룹_1015" data-name="그룹 1015">
      <path id="패스_459" data-name="패스 459" d="M175,346.156h-6.214a.717.717,0,1,0,0,1.434H175a.717.717,0,0,0,0-1.434Z" transform="translate(-168.069 -346.156)" fill="#444"/>
    </g>
  </g>
  <g id="그룹_1018" data-name="그룹 1018" transform="translate(7.218 17.735)">
    <g id="그룹_1017" data-name="그룹 1017">
      <path id="패스_460" data-name="패스 460" d="M172.132,412.939h-3.346a.717.717,0,1,0,0,1.434h3.346a.717.717,0,1,0,0-1.434Z" transform="translate(-168.069 -412.939)" fill="#444"/>
    </g>
  </g>
  <g id="그룹_1020" data-name="그룹 1020" transform="translate(14.867 9.13)">
    <g id="그룹_1019" data-name="그룹 1019">
      <circle id="타원_85" data-name="타원 85" cx="0.717" cy="0.717" r="0.717" fill="#444"/>
    </g>
  </g>
  <g id="그룹_1022" data-name="그룹 1022" transform="translate(17.735 9.13)">
    <g id="그룹_1021" data-name="그룹 1021">
      <circle id="타원_86" data-name="타원 86" cx="0.717" cy="0.717" r="0.717" fill="#444"/>
    </g>
  </g>
</svg>
