<svg id="calendar" xmlns="http://www.w3.org/2000/svg" width="22" height="22" viewBox="0 0 22 22">
  <path id="패스_1687" data-name="패스 1687" d="M163.355,273.62a.513.513,0,0,1-.055,0,.721.721,0,0,1-.525-.292l-2.635-3.594a.719.719,0,0,1,1.16-.849l2.14,2.918,4.918-4.918a.719.719,0,1,1,1.017,1.017l-5.51,5.51A.726.726,0,0,1,163.355,273.62Zm0,0" transform="translate(-153.349 -255.439)"/>
  <path id="패스_1688" data-name="패스 1688" d="M19.479,62.751H2.521A2.518,2.518,0,0,1,0,60.241V45.178a2.518,2.518,0,0,1,2.521-2.51H19.479A2.518,2.518,0,0,1,22,45.178V60.241A2.518,2.518,0,0,1,19.479,62.751ZM2.521,44.037a1.145,1.145,0,0,0-1.146,1.141V60.241a1.145,1.145,0,0,0,1.146,1.141H19.479a1.145,1.145,0,0,0,1.146-1.141V45.178a1.145,1.145,0,0,0-1.146-1.141Zm0,0" transform="translate(0 -40.751)"/>
  <path id="패스_1689" data-name="패스 1689" d="M21.313,172.105H.688a.719.719,0,0,1,0-1.437H21.313a.719.719,0,0,1,0,1.438Zm0,0" transform="translate(0 -163.357)"/>
  <path id="패스_1690" data-name="패스 1690" d="M107.387,5.75a.719.719,0,0,1-.719-.719V.719a.719.719,0,1,1,1.438,0V5.031A.719.719,0,0,1,107.387,5.75Zm0,0" transform="translate(-102.098)"/>
  <path id="패스_1691" data-name="패스 1691" d="M374.051,5.75a.719.719,0,0,1-.719-.719V.719a.719.719,0,1,1,1.438,0V5.031A.719.719,0,0,1,374.051,5.75Zm0,0" transform="translate(-357.339)"/>
</svg>
