<svg xmlns="http://www.w3.org/2000/svg" width="30" height="30" viewBox="0 0 30 30">
  <g id="Layer_35" data-name="Layer 35" transform="translate(-3.4 -3.4)">
    <path id="패스_1749" data-name="패스 1749" d="M18.4,3.4a15,15,0,1,0,15,15,14.995,14.995,0,0,0-15-15Zm0,25.8a2.266,2.266,0,1,1,2.26-2.26A2.266,2.266,0,0,1,18.4,29.2Zm2.743-18.671-.855,11.538a.315.315,0,0,1-.315.294H16.827a.315.315,0,0,1-.315-.294l-.855-11.538a2.748,2.748,0,1,1,5.486,0Z" transform="translate(0 0)" fill="#a1b9d3"/>
  </g>
</svg>
