<svg id="question" xmlns="http://www.w3.org/2000/svg" width="30" height="30" viewBox="0 0 30 30">
  <path id="패스_1751" data-name="패스 1751" d="M15,0A15,15,0,1,0,30,15,15.017,15.017,0,0,0,15,0Zm0,0" fill="#40c4ff"/>
  <path id="패스_1752" data-name="패스 1752" d="M237.486,364.077a1.409,1.409,0,1,1-1.409-1.409A1.409,1.409,0,0,1,237.486,364.077Zm0,0" transform="translate(-221.077 -341.664)" fill="#eceff1"/>
  <path id="패스_1753" data-name="패스 1753" d="M168.571,97.508a1.415,1.415,0,0,0-.821,1.281v.633a1.409,1.409,0,1,1-2.818,0v-.633a4.245,4.245,0,0,1,2.459-3.841,4.6,4.6,0,0,0,2.473-3.276,3.522,3.522,0,0,0-7.045,0,1.409,1.409,0,1,1-2.818,0,6.34,6.34,0,0,1,12.681,0A7.341,7.341,0,0,1,168.571,97.508Zm0,0" transform="translate(-151.34 -80.87)" fill="#fafafa"/>
</svg>
