<svg xmlns="http://www.w3.org/2000/svg" width="20" height="20" viewBox="0 0 20 20">
  <g id="그룹_2394" data-name="그룹 2394" transform="translate(-487 -1074)">
    <rect id="사각형_3005" data-name="사각형 3005" width="10" height="3" transform="translate(492 1083)" fill="#fff"/>
    <rect id="사각형_3006" data-name="사각형 3006" width="16" height="7" transform="translate(489 1086)" fill="#fff"/>
    <circle id="타원_117" data-name="타원 117" cx="3" cy="3" r="3" transform="translate(494 1075)" fill="#fff"/>
    <g id="layer1" transform="translate(486.472 784.938)">
      <path id="rect1028" d="M10.525,289.063a3.572,3.572,0,1,0,3.574,3.576A3.584,3.584,0,0,0,10.525,289.063Zm0,1.429a2.144,2.144,0,1,1-2.139,2.147A2.139,2.139,0,0,1,10.525,290.491ZM6.956,296.92a2.149,2.149,0,0,0-2.139,2.14v1.429c-1.206-.014-2.377,0-3.574,0a.715.715,0,0,0,0,1.43h.718v5A2.154,2.154,0,0,0,4.1,309.063H16.956a2.155,2.155,0,0,0,2.141-2.146v-5h.717a.715.715,0,0,0,0-1.43H16.239V299.06a2.149,2.149,0,0,0-2.139-2.14Zm0,1.429H14.1a.693.693,0,0,1,.711.712v1.429H6.245V299.06a.693.693,0,0,1,.711-.712Zm-3.567,3.57H17.667v5a.7.7,0,0,1-.711.717H4.1a.7.7,0,0,1-.711-.717Z" transform="translate(0)" fill="#afafaf"/>
    </g>
  </g>
</svg>
