<svg xmlns="http://www.w3.org/2000/svg" width="17" height="20" viewBox="0 0 17 20">
  <g id="Layer_1" transform="translate(-4 -2.25)">
    <g id="그룹_1870" data-name="그룹 1870" transform="translate(4 2.25)">
      <path id="패스_1301" data-name="패스 1301" d="M19.227,20.477a.727.727,0,0,0,.727-.727V12.477a.727.727,0,1,0-1.455,0V19.75A.727.727,0,0,0,19.227,20.477Z" transform="translate(-8.254 -4.841)" fill="#888"/>
      <path id="패스_1302" data-name="패스 1302" d="M12.227,20.477a.727.727,0,0,0,.727-.727V12.477a.727.727,0,1,0-1.455,0V19.75A.727.727,0,0,0,12.227,20.477Z" transform="translate(-6.2 -4.841)" fill="#888"/>
      <path id="패스_1303" data-name="패스 1303" d="M17.545,3.7a.727.727,0,0,0,0-1.455H11.727a.727.727,0,1,0,0,1.455Z" transform="translate(-6.136 -2.25)" fill="#888"/>
      <path id="패스_1304" data-name="패스 1304" d="M4.708,5.25a.728.728,0,0,0,0,1.455h.708V20.086a2.948,2.948,0,0,0,2.9,2.982h8.358a2.948,2.948,0,0,0,2.9-2.982V6.7h.708a.728.728,0,0,0,0-1.455H4.708ZM18.167,6.7V20.086a1.508,1.508,0,0,1-1.487,1.527H8.321a1.508,1.508,0,0,1-1.487-1.527V6.7Z" transform="translate(-4 -3.068)" fill="#888"/>
    </g>
  </g>
</svg>
