<svg xmlns="http://www.w3.org/2000/svg" width="50" height="51" viewBox="0 0 50 51">
  <g id="writing_1_" data-name="writing (1)" transform="translate(-1.31 -1.12)">
    <path id="패스_1719" data-name="패스 1719" d="M12.277,21.452H23.313a.708.708,0,0,0,.707-.707V7.827a.708.708,0,0,0-.707-.707H12.277a.708.708,0,0,0-.707.707V20.744a.714.714,0,0,0,.707.707Zm.707-12.917h9.629v11.51H12.985Z" transform="translate(-2.216 -1.177)" fill="#888"/>
    <path id="패스_1720" data-name="패스 1720" d="M37.693,29.28H12.277a.707.707,0,1,0,0,1.415H37.693a.707.707,0,1,0,0-1.415Z" transform="translate(-2.337 -5.639)" fill="#888"/>
    <path id="패스_1721" data-name="패스 1721" d="M37.693,35.17H12.277a.707.707,0,0,0,0,1.415H37.693a.707.707,0,1,0,0-1.415Z" transform="translate(-2.337 -6.818)" fill="#888"/>
    <path id="패스_1722" data-name="패스 1722" d="M38.393,41.767a.708.708,0,0,0-.707-.707H12.277a.707.707,0,0,0,0,1.415H37.693A.7.7,0,0,0,38.393,41.767Z" transform="translate(-2.337 -7.997)" fill="#888"/>
    <path id="패스_1723" data-name="패스 1723" d="M27.549,46.96H12.277a.707.707,0,0,0,0,1.415H27.549a.707.707,0,0,0,0-1.415Z" transform="translate(-2.241 -9.179)" fill="#888"/>
    <path id="패스_1724" data-name="패스 1724" d="M27.549,52.86H12.277a.707.707,0,0,0,0,1.415H27.549a.707.707,0,0,0,0-1.415Z" transform="translate(-2.241 -10.402)" fill="#888"/>
    <path id="패스_1725" data-name="패스 1725" d="M58.995,33.753l-2.114-2.114a2.088,2.088,0,0,0-2.886,0L51.97,33.664l-11.5,11.494a.028.028,0,0,0-.008.016.913.913,0,0,0-.121.185c-.008.016-.016.04-.024.056l-.024.048-1.567,5.57a.712.712,0,0,0,.177.691.7.7,0,0,0,.5.209.793.793,0,0,0,.193-.024l5.57-1.567a.114.114,0,0,1,.048-.016c.016-.008.04-.016.056-.024a.624.624,0,0,0,.193-.129.008.008,0,0,0,.008-.008L56.961,38.672l2.034-2.034A2.042,2.042,0,0,0,58.995,33.753ZM44.977,48.671l-1-1L54.478,37.161l1,1Zm7.491-13.52,1,1-10.5,10.506-1-1ZM41.319,47.007l2.307,2.307-3.207.9ZM58,35.642l-1.527,1.527-3.006-3.006,1.527-1.527a.641.641,0,0,1,.892,0L58,34.749A.626.626,0,0,1,58,35.642Z" transform="translate(-8.282 -6.124)" fill="#888"/>
    <path id="패스_1726" data-name="패스 1726" d="M39.574,43.425a.7.7,0,0,0-.691.7V46.3a1,1,0,0,1-.989,1.008H7.015A1,1,0,0,1,6.026,46.3V3.528A1,1,0,0,1,7.015,2.52H29.623V9.559a2.388,2.388,0,0,0,2.362,2.408h6.906v17.4a.691.691,0,1,0,1.381,0V11.27a.7.7,0,0,0-.2-.5L30.792,1.328a.7.7,0,0,0-.487-.208H7.015A2.388,2.388,0,0,0,4.653,3.528V4.535H3.672A2.388,2.388,0,0,0,1.31,6.943V49.712A2.388,2.388,0,0,0,3.672,52.12H34.559a2.388,2.388,0,0,0,2.362-2.408V48.7h.989A2.388,2.388,0,0,0,40.272,46.3V44.121a.714.714,0,0,0-.7-.7ZM31,9.567V3.512l6.921,7.055H31.985A.992.992,0,0,1,31,9.567ZM35.54,49.712a1,1,0,0,1-.989,1.008H3.672a1,1,0,0,1-.989-1.008V6.943a1,1,0,0,1,.989-1.008h.989V46.3A2.388,2.388,0,0,0,7.023,48.7H35.548v1.008Z" transform="translate(0 0)" fill="#888"/>
  </g>
</svg>
