<svg xmlns="http://www.w3.org/2000/svg" width="24" height="24.001" viewBox="0 0 24 24.001">
  <g id="그룹_2393" data-name="그룹 2393" transform="translate(-1634 -1074)">
    <circle id="타원_118" data-name="타원 118" cx="3" cy="3" r="3" transform="translate(1643 1075)" fill="#fff"/>
    <path id="사각형_3007" data-name="사각형 3007" d="M2,0H12a2,2,0,0,1,2,2V3a0,0,0,0,1,0,0H0A0,0,0,0,1,0,3V2A2,2,0,0,1,2,0Z" transform="translate(1639 1084)" fill="#fff"/>
    <path id="패스_1714" data-name="패스 1714" d="M3824.044,12907.605l1.69,3.962h2.826l-.438-2.412h11.731l-.47,2.692h3.44l1.593-4.242Z" transform="translate(-2188 -11819)" fill="#fff" stroke="#fff" stroke-width="1"/>
    <g id="speaker" transform="translate(1634 1074)">
      <g id="그룹_2383" data-name="그룹 2383">
        <path id="패스_1709" data-name="패스 1709" d="M21.25,20H17.07a.75.75,0,0,1,0-1.5h3.654l1.455-4H1.82l1.455,4H6.93a.75.75,0,0,1,0,1.5H2.75a.75.75,0,0,1-.7-.494l-2-5.5A.75.75,0,0,1,.75,13h22.5a.751.751,0,0,1,.7,1.007l-2,5.5A.751.751,0,0,1,21.25,20Z" fill="#afafaf"/>
      </g>
      <g id="그룹_2384" data-name="그룹 2384">
        <path id="패스_1710" data-name="패스 1710" d="M16.251,24a.751.751,0,0,1-.742-.864l.867-5.636H7.624l.867,5.636a.75.75,0,1,1-1.482.228l-1-6.5A.749.749,0,0,1,6.75,16h10.5a.751.751,0,0,1,.741.865l-1,6.5a.749.749,0,0,1-.74.635Z" fill="#afafaf"/>
      </g>
      <g id="그룹_2385" data-name="그룹 2385">
        <path id="패스_1711" data-name="패스 1711" d="M22.5,14.25a.75.75,0,0,1-.75-.75,5.765,5.765,0,0,0-2.761-4.889A.75.75,0,0,1,19.77,7.33a7.276,7.276,0,0,1,3.479,6.17A.749.749,0,0,1,22.5,14.25Z" fill="#afafaf"/>
      </g>
      <g id="그룹_2386" data-name="그룹 2386">
        <circle id="타원_116" data-name="타원 116" cx="1.5" cy="1.5" r="1.5" transform="translate(17 6)" fill="#afafaf"/>
      </g>
      <g id="그룹_2387" data-name="그룹 2387">
        <path id="패스_1712" data-name="패스 1712" d="M12,8a4,4,0,1,1,4-4A4,4,0,0,1,12,8Zm0-6.5A2.5,2.5,0,1,0,14.5,4,2.5,2.5,0,0,0,12,1.5Z" fill="#afafaf"/>
      </g>
      <g id="그룹_2388" data-name="그룹 2388">
        <path id="패스_1713" data-name="패스 1713" d="M19.5,14.5a.75.75,0,0,1-.75-.75A3.254,3.254,0,0,0,15.5,10.5h-7a3.254,3.254,0,0,0-3.25,3.25.75.75,0,0,1-1.5,0A4.756,4.756,0,0,1,8.5,9h7a4.756,4.756,0,0,1,4.75,4.75A.75.75,0,0,1,19.5,14.5Z" fill="#afafaf"/>
      </g>
    </g>
  </g>
</svg>
