<svg xmlns="http://www.w3.org/2000/svg" width="18" height="20" viewBox="0 0 18 20">
  <g id="search-file" transform="translate(-2.25 -2.25)">
    <path id="패스_1296" data-name="패스 1296" d="M2.25,4.558A2.2,2.2,0,0,1,4.327,2.25H18.173A2.2,2.2,0,0,1,20.25,4.558V12.25a.7.7,0,1,1-1.385,0V4.558a.734.734,0,0,0-.692-.769H4.327a.734.734,0,0,0-.692.769V19.942a.734.734,0,0,0,.692.769H11.25a.774.774,0,0,1,0,1.538H4.327A2.2,2.2,0,0,1,2.25,19.942Z" transform="translate(0)" fill="#188cf8" fill-rule="evenodd"/>
    <path id="패스_1297" data-name="패스 1297" d="M16,13.75A2.25,2.25,0,1,0,18.25,16,2.25,2.25,0,0,0,16,13.75ZM12.25,16A3.75,3.75,0,1,1,16,19.75,3.75,3.75,0,0,1,12.25,16Z" transform="translate(-1.5 0.5)" fill="#188cf8" fill-rule="evenodd"/>
    <path id="패스_1298" data-name="패스 1298" d="M17.914,17.531a.75.75,0,0,1,1.054-.117l2.5,2a.75.75,0,1,1-.937,1.171l-2.5-2a.75.75,0,0,1-.117-1.054Z" transform="translate(-1.5 0.5)" fill="#188cf8" fill-rule="evenodd"/>
    <path id="패스_1299" data-name="패스 1299" d="M6.25,8A.706.706,0,0,1,6.9,7.25h8.7A.706.706,0,0,1,16.25,8a.706.706,0,0,1-.652.75H6.9A.706.706,0,0,1,6.25,8Z" transform="translate(0 0.139)" fill="#188cf8" fill-rule="evenodd"/>
    <path id="패스_1300" data-name="패스 1300" d="M6.25,12A.75.75,0,0,1,7,11.25h4a.75.75,0,0,1,0,1.5H7A.75.75,0,0,1,6.25,12Z" transform="translate(-0.429 0.25)" fill="#188cf8" fill-rule="evenodd"/>
  </g>
</svg>
